<svg width="713" height="232" viewBox="0 0 713 232" fill="none" xmlns="http://www.w3.org/2000/svg">
<path fill-rule="evenodd" clip-rule="evenodd" d="M52.3526 216.613C58.4688 213.72 75.0201 198.688 81.5952 193.476C88.6713 187.869 87.0566 183.906 88.4016 173.221C89.3635 165.561 90.8467 157.222 91.127 149.784C87.1037 151.789 64.6656 168.258 61.0819 171.739C57.1709 175.539 52.2202 209.463 52.3517 216.613H52.3526Z" fill="#0297D8"/>
<path fill-rule="evenodd" clip-rule="evenodd" d="M195.761 178.595C192.848 173.638 188.172 168.551 184.677 164.244C165.865 141.059 171.518 144.535 152.745 142.26C145.466 141.377 135.619 139.619 128.609 139.758C131.564 144.764 146.901 165.96 150.875 169.832C155.105 173.956 165.847 173.996 172.602 175.08C180.17 176.293 187.986 178.082 195.761 178.595V178.595Z" fill="#0297D8"/>
<path fill-rule="evenodd" clip-rule="evenodd" d="M13.4092 178.413C20.2847 178.562 54.1736 173.427 57.6709 170.871C58.8843 169.984 79.339 142.423 80.6562 139.612C72.7122 139.925 64.821 141.287 57.1611 142.182C46.916 143.38 42.7314 141.952 37.1058 148.983C28.9717 159.152 20.8972 168.55 13.4092 178.412V178.413Z" fill="#0297D8"/>
<path fill-rule="evenodd" clip-rule="evenodd" d="M90.8775 102.135C91.1991 96.2813 89.377 86.5354 88.5754 80.0487C86.9636 67.0244 88.4621 64.0589 82.4593 59.0247C76.5015 54.0308 57.6615 37.7329 52.1377 35.0996C52.4699 43.3038 57.1105 75.9255 60.5646 79.7251L90.8775 102.135Z" fill="#0297D8"/>
<path fill-rule="evenodd" clip-rule="evenodd" d="M157.449 216.785C156.806 209.012 152.691 176.93 149.235 172.705C147.062 170.047 122.279 152.06 118.761 149.867L122.296 184.946C123.189 190.866 123.722 190.254 127.492 193.225C135.718 199.702 149.35 212.53 157.449 216.785Z" fill="#0297D8"/>
<path fill-rule="evenodd" clip-rule="evenodd" d="M104.629 231.186C106.765 227.43 119.228 195.397 119.709 192.085C120.451 186.977 107.555 158.35 104.684 153.505C101.662 158.225 88.8913 187.664 89.5854 191.853C90.0913 194.916 102.702 227.65 104.628 231.186H104.629Z" fill="#0297D8"/>
<path fill-rule="evenodd" clip-rule="evenodd" d="M128.541 112.283L163.429 108.301C171.637 106.977 174.862 99.3692 183.948 88.3936C187.52 84.0803 193.02 78.0937 195.537 73.5126C188.302 73.3292 154.774 78.5084 151.288 81.4902C149.045 83.4083 130.384 108.898 128.542 112.283H128.541Z" fill="#0297D8"/>
<path fill-rule="evenodd" clip-rule="evenodd" d="M0 126.071C2.87136 127.87 35.0899 140.336 38.4441 141.071C42.7123 142.004 71.8627 129.351 76.5158 126.071C73.4044 123.052 42.1238 110.304 39.1852 110.667C35.4172 111.13 1.86336 124.498 0 126.071Z" fill="#0297D8"/>
<path fill-rule="evenodd" clip-rule="evenodd" d="M132.574 126.071C136.526 128.652 167.024 141.543 169.738 141.285C171.965 141.075 206.065 127.887 209.209 126.071C206.133 123.317 194.893 119.883 190.34 118.095C164.791 108.068 172.308 108.552 151.564 117.351C145.6 119.88 136.999 122.29 132.574 126.072V126.071Z" fill="#0297D8"/>
<path fill-rule="evenodd" clip-rule="evenodd" d="M81.0259 111.871C74.0429 104.842 66.2736 90.3251 59.0717 82.4636C54.9687 77.9872 44.1687 77.9305 37.5889 76.8083C30.5386 75.6064 20.7351 73.5405 13.8442 73.2852C16.6628 78.9626 31.8365 95.7386 37.3076 102.921C42.6442 109.929 43.128 107.728 57.8784 109.651C63.5616 110.392 75.6346 112.512 81.0259 111.871Z" fill="#0297D8"/>
<path fill-rule="evenodd" clip-rule="evenodd" d="M118.509 101.729C121.249 100.509 147.617 81.1176 149.125 79.2993C151.769 76.1102 157.446 40.3435 157.255 34.5566C147.934 42.2549 138.389 49.6479 128.647 57.6312C120.767 64.0901 122.508 65.484 121.134 77.2094C120.154 85.5873 118.707 93.3911 118.509 101.729Z" fill="#0297D8"/>
<path fill-rule="evenodd" clip-rule="evenodd" d="M105.374 98.0623C107.841 91.4997 120.493 65.5576 119.817 60.0069C119.43 56.8322 106.605 24.3573 104.727 20.8408C103.129 23.3647 90.4539 55.5381 89.6552 59.2514C88.5329 64.4757 93.7524 73.5726 95.9748 78.6251L105.374 98.0623Z" fill="#0297D8"/>
<path d="M314.586 150.007H274.457L268.024 169H240.607L279.511 61.4767H309.838L348.743 169H321.019L314.586 150.007ZM307.847 129.789L294.521 90.4253L281.349 129.789H307.847ZM442.528 96.0925C442.528 102.321 441.098 108.04 438.239 113.247C435.38 118.353 430.989 122.488 425.066 125.654C419.144 128.819 411.792 130.402 403.01 130.402H386.775V169H360.583V61.4767H403.01C411.588 61.4767 418.838 62.9573 424.76 65.9186C430.683 68.8798 435.124 72.9642 438.086 78.1719C441.047 83.3796 442.528 89.3531 442.528 96.0925ZM401.019 109.571C406.023 109.571 409.75 108.397 412.2 106.048C414.651 103.7 415.876 100.381 415.876 96.0925C415.876 91.8038 414.651 88.4852 412.2 86.1366C409.75 83.7881 406.023 82.6138 401.019 82.6138H386.775V109.571H401.019ZM482.355 148.782H516.664V169H456.163V61.4767H482.355V148.782ZM555.348 82.4606V104.21H590.423V124.428H555.348V148.016H595.019V169H529.157V61.4767H595.019V82.4606H555.348ZM677.884 169L655.981 136.069L636.682 169H606.968L641.43 114.319L606.202 61.4767H636.682L658.279 93.9481L677.272 61.4767H706.986L672.83 115.698L708.365 169H677.884Z" fill="#FEFEFE"/>
<path d="M242.743 212.898V184.934H262.962V188.234H246.443V196.799H261.913V200.08H246.443V209.598H263.611V212.898H242.743ZM268.685 212.898V184.934H272.481L287.169 206.89V184.934H290.717V212.898H286.921L272.233 190.924V212.898H268.685ZM310.04 201.93V198.649L321.886 198.63V209.007C320.067 210.457 318.192 211.55 316.259 212.288C314.326 213.013 312.342 213.375 310.307 213.375C307.56 213.375 305.062 212.79 302.811 211.62C300.572 210.438 298.881 208.734 297.737 206.508C296.592 204.283 296.02 201.797 296.02 199.05C296.02 196.328 296.586 193.791 297.718 191.439C298.862 189.073 300.503 187.318 302.639 186.174C304.775 185.029 307.236 184.457 310.021 184.457C312.043 184.457 313.868 184.788 315.496 185.449C317.136 186.098 318.421 187.007 319.349 188.177C320.277 189.347 320.983 190.873 321.466 192.755L318.128 193.671C317.708 192.246 317.187 191.127 316.564 190.313C315.941 189.499 315.051 188.851 313.893 188.368C312.736 187.872 311.452 187.624 310.04 187.624C308.349 187.624 306.886 187.884 305.653 188.406C304.419 188.914 303.421 189.588 302.658 190.428C301.908 191.267 301.323 192.189 300.903 193.194C300.191 194.923 299.835 196.799 299.835 198.821C299.835 201.313 300.261 203.399 301.113 205.078C301.978 206.756 303.23 208.002 304.871 208.816C306.511 209.63 308.253 210.037 310.097 210.037C311.7 210.037 313.264 209.732 314.79 209.122C316.316 208.498 317.473 207.837 318.262 207.138V201.93H310.04ZM327.99 212.898V184.934H331.691V212.898H327.99ZM338.195 212.898V184.934H341.991L356.679 206.89V184.934H360.227V212.898H356.431L341.743 190.924V212.898H338.195ZM366.541 212.898V184.934H386.761V188.234H370.242V196.799H385.712V200.08H370.242V209.598H387.41V212.898H366.541ZM392.598 212.898V184.934H412.818V188.234H396.299V196.799H411.769V200.08H396.299V209.598H413.466V212.898H392.598ZM418.636 212.898V184.934H431.035C433.527 184.934 435.422 185.188 436.719 185.697C438.016 186.193 439.053 187.077 439.829 188.349C440.604 189.62 440.992 191.025 440.992 192.564C440.992 194.548 440.35 196.22 439.065 197.581C437.781 198.942 435.797 199.806 433.114 200.175C434.093 200.646 434.837 201.11 435.346 201.568C436.427 202.56 437.45 203.8 438.417 205.287L443.281 212.898H438.627L434.926 207.08C433.845 205.402 432.955 204.117 432.256 203.227C431.556 202.337 430.927 201.714 430.367 201.358C429.82 201.002 429.261 200.754 428.689 200.614C428.269 200.525 427.582 200.48 426.628 200.48H422.336V212.898H418.636ZM422.336 197.276H430.291C431.982 197.276 433.305 197.104 434.259 196.761C435.212 196.405 435.937 195.845 436.433 195.082C436.929 194.306 437.177 193.467 437.177 192.564C437.177 191.242 436.694 190.154 435.727 189.302C434.774 188.45 433.26 188.024 431.187 188.024H422.336V197.276ZM447.44 212.898V184.934H451.14V212.898H447.44ZM457.645 212.898V184.934H461.441L476.129 206.89V184.934H479.677V212.898H475.881L461.193 190.924V212.898H457.645ZM499 201.93V198.649L510.846 198.63V209.007C509.027 210.457 507.152 211.55 505.219 212.288C503.286 213.013 501.302 213.375 499.267 213.375C496.52 213.375 494.021 212.79 491.771 211.62C489.532 210.438 487.841 208.734 486.697 206.508C485.552 204.283 484.98 201.797 484.98 199.05C484.98 196.328 485.546 193.791 486.677 191.439C487.822 189.073 489.462 187.318 491.599 186.174C493.735 185.029 496.196 184.457 498.981 184.457C501.003 184.457 502.828 184.788 504.456 185.449C506.096 186.098 507.38 187.007 508.309 188.177C509.237 189.347 509.943 190.873 510.426 192.755L507.088 193.671C506.668 192.246 506.147 191.127 505.524 190.313C504.901 189.499 504.011 188.851 502.853 188.368C501.696 187.872 500.412 187.624 499 187.624C497.309 187.624 495.846 187.884 494.613 188.406C493.379 188.914 492.381 189.588 491.618 190.428C490.868 191.267 490.283 192.189 489.863 193.194C489.151 194.923 488.795 196.799 488.795 198.821C488.795 201.313 489.221 203.399 490.073 205.078C490.938 206.756 492.19 208.002 493.831 208.816C495.471 209.63 497.213 210.037 499.057 210.037C500.66 210.037 502.224 209.732 503.75 209.122C505.276 208.498 506.433 207.837 507.222 207.138V201.93H499ZM525.934 203.914L529.425 203.609C529.59 205.008 529.972 206.158 530.57 207.061C531.18 207.952 532.121 208.676 533.393 209.236C534.665 209.783 536.095 210.056 537.685 210.056C539.096 210.056 540.343 209.846 541.424 209.427C542.504 209.007 543.306 208.435 543.827 207.71C544.361 206.972 544.628 206.171 544.628 205.306C544.628 204.429 544.374 203.666 543.865 203.017C543.357 202.356 542.517 201.803 541.347 201.358C540.597 201.065 538.937 200.614 536.369 200.004C533.8 199.38 532 198.795 530.97 198.249C529.635 197.549 528.637 196.684 527.975 195.654C527.327 194.612 527.003 193.448 527.003 192.164C527.003 190.752 527.403 189.436 528.204 188.215C529.006 186.981 530.175 186.047 531.714 185.411C533.253 184.775 534.963 184.457 536.845 184.457C538.918 184.457 540.743 184.794 542.32 185.468C543.91 186.129 545.131 187.109 545.983 188.406C546.835 189.703 547.292 191.172 547.356 192.812L543.808 193.079C543.617 191.312 542.969 189.976 541.862 189.073C540.769 188.17 539.147 187.719 536.998 187.719C534.76 187.719 533.126 188.132 532.096 188.959C531.078 189.773 530.57 190.758 530.57 191.916C530.57 192.92 530.932 193.747 531.657 194.395C532.369 195.044 534.226 195.712 537.227 196.398C540.241 197.072 542.307 197.664 543.426 198.172C545.054 198.923 546.256 199.876 547.032 201.034C547.807 202.178 548.195 203.501 548.195 205.001C548.195 206.489 547.769 207.894 546.917 209.217C546.065 210.527 544.838 211.55 543.236 212.288C541.646 213.013 539.853 213.375 537.856 213.375C535.326 213.375 533.202 213.007 531.485 212.269C529.781 211.531 528.44 210.425 527.46 208.95C526.494 207.462 525.985 205.783 525.934 203.914ZM561.128 212.898V201.053L550.351 184.934H554.853L560.365 193.365C561.383 194.942 562.33 196.519 563.208 198.096C564.047 196.634 565.064 194.987 566.26 193.156L571.677 184.934H575.988L564.829 201.053V212.898H561.128ZM578.048 203.914L581.539 203.609C581.704 205.008 582.086 206.158 582.683 207.061C583.294 207.952 584.235 208.676 585.507 209.236C586.778 209.783 588.209 210.056 589.798 210.056C591.21 210.056 592.456 209.846 593.537 209.427C594.618 209.007 595.419 208.435 595.941 207.71C596.475 206.972 596.742 206.171 596.742 205.306C596.742 204.429 596.488 203.666 595.979 203.017C595.47 202.356 594.631 201.803 593.461 201.358C592.711 201.065 591.051 200.614 588.482 200.004C585.913 199.38 584.114 198.795 583.084 198.249C581.749 197.549 580.75 196.684 580.089 195.654C579.441 194.612 579.116 193.448 579.116 192.164C579.116 190.752 579.517 189.436 580.318 188.215C581.119 186.981 582.289 186.047 583.828 185.411C585.367 184.775 587.077 184.457 588.959 184.457C591.032 184.457 592.857 184.794 594.434 185.468C596.023 186.129 597.244 187.109 598.096 188.406C598.948 189.703 599.406 191.172 599.47 192.812L595.922 193.079C595.731 191.312 595.082 189.976 593.976 189.073C592.882 188.17 591.261 187.719 589.112 187.719C586.874 187.719 585.239 188.132 584.209 188.959C583.192 189.773 582.683 190.758 582.683 191.916C582.683 192.92 583.046 193.747 583.771 194.395C584.483 195.044 586.34 195.712 589.341 196.398C592.355 197.072 594.421 197.664 595.54 198.172C597.168 198.923 598.37 199.876 599.145 201.034C599.921 202.178 600.309 203.501 600.309 205.001C600.309 206.489 599.883 207.894 599.031 209.217C598.179 210.527 596.952 211.55 595.349 212.288C593.76 213.013 591.967 213.375 589.97 213.375C587.44 213.375 585.316 213.007 583.599 212.269C581.895 211.531 580.553 210.425 579.574 208.95C578.608 207.462 578.099 205.783 578.048 203.914ZM612.479 212.898V188.234H603.266V184.934H625.431V188.234H616.18V212.898H612.479ZM629.322 212.898V184.934H649.542V188.234H633.023V196.799H648.493V200.08H633.023V209.598H650.191V212.898H629.322ZM655.189 212.898V184.934H660.759L667.378 204.734C667.988 206.578 668.433 207.958 668.713 208.874C669.031 207.856 669.527 206.362 670.201 204.391L676.896 184.934H681.875V212.898H678.308V189.493L670.182 212.898H666.844L658.756 189.092V212.898H655.189ZM686.587 203.914L690.077 203.609C690.243 205.008 690.624 206.158 691.222 207.061C691.832 207.952 692.773 208.676 694.045 209.236C695.317 209.783 696.747 210.056 698.337 210.056C699.749 210.056 700.995 209.846 702.076 209.427C703.157 209.007 703.958 208.435 704.479 207.71C705.013 206.972 705.28 206.171 705.28 205.306C705.28 204.429 705.026 203.666 704.517 203.017C704.009 202.356 703.169 201.803 701.999 201.358C701.249 201.065 699.59 200.614 697.021 200.004C694.452 199.38 692.653 198.795 691.622 198.249C690.287 197.549 689.289 196.684 688.628 195.654C687.979 194.612 687.655 193.448 687.655 192.164C687.655 190.752 688.055 189.436 688.857 188.215C689.658 186.981 690.828 186.047 692.366 185.411C693.905 184.775 695.616 184.457 697.498 184.457C699.57 184.457 701.395 184.794 702.972 185.468C704.562 186.129 705.783 187.109 706.635 188.406C707.487 189.703 707.945 191.172 708.008 192.812L704.46 193.079C704.269 191.312 703.621 189.976 702.514 189.073C701.421 188.17 699.799 187.719 697.65 187.719C695.412 187.719 693.778 188.132 692.748 188.959C691.731 189.773 691.222 190.758 691.222 191.916C691.222 192.92 691.584 193.747 692.309 194.395C693.021 195.044 694.878 195.712 697.879 196.398C700.893 197.072 702.96 197.664 704.079 198.172C705.706 198.923 706.908 199.876 707.684 201.034C708.46 202.178 708.847 203.501 708.847 205.001C708.847 206.489 708.421 207.894 707.569 209.217C706.717 210.527 705.49 211.55 703.888 212.288C702.298 213.013 700.505 213.375 698.509 213.375C695.978 213.375 693.854 213.007 692.137 212.269C690.433 211.531 689.092 210.425 688.113 208.95C687.146 207.462 686.637 205.783 686.587 203.914Z" fill="#FEFEFE"/>
</svg>
