<?xml version="1.0" encoding="UTF-8"?>
<!-- Generator: Adobe Illustrator 28.0.0, SVG Export Plug-In . SVG Version: 6.00 Build 0)  -->
<svg xmlns="http://www.w3.org/2000/svg" xmlns:xlink="http://www.w3.org/1999/xlink" version="1.1" id="Layer_1" x="0px" y="0px" viewBox="0 0 235 70" style="enable-background:new 0 0 235 70;" xml:space="preserve">
<style type="text/css">
	.st0{fill:#00A0E3;}
	.st1{fill:#00445C;}
</style>
<g>
	<path class="st0" d="M83.76,35L72.1,23.33L60.43,11.67L48.76,0L37.1,11.67L25.43,23.33L13.76,35L2.1,46.67l11.67,11.67L25.43,70   h23.33H72.1l11.67-11.67l11.67-11.67L83.76,35z M60.43,58.33L48.76,46.67L37.1,58.33L25.43,46.67L37.1,35l11.67-11.67L60.43,35   L72.1,46.67L60.43,58.33z"></path>
	<path class="st1" d="M112.07,27.04c1.55-1.16,2.93-1.94,4.13-2.35c1.2-0.41,2.43-0.62,3.68-0.62c1.16,0,2.22,0.18,3.2,0.53   c0.97,0.35,1.8,0.84,2.49,1.48c0.68,0.64,1.22,1.4,1.6,2.28c0.38,0.88,0.57,1.87,0.57,2.97v2.4c0,0.81-0.01,1.61-0.04,2.4   c-0.03,0.79-0.05,1.66-0.07,2.6c-0.02,0.94-0.02,1.84-0.02,2.69c0,0.24,0.01,0.5,0.02,0.78c0.01,0.27,0.04,0.53,0.09,0.75   c0.05,0.23,0.12,0.42,0.23,0.57c0.1,0.15,0.27,0.23,0.48,0.23c0.06,0,0.2-0.03,0.41-0.09c0.21-0.06,0.65-0.29,1.32-0.68v2.97   c-0.43,0.18-0.98,0.38-1.67,0.59c-0.68,0.21-1.33,0.32-1.94,0.32c-0.85,0-1.55-0.18-2.1-0.55c-0.55-0.36-0.99-0.84-1.32-1.41   c-0.88,0.76-1.83,1.35-2.85,1.78c-1.02,0.43-2.18,0.64-3.49,0.64c-0.82,0-1.64-0.14-2.44-0.43c-0.81-0.29-1.51-0.7-2.12-1.23   c-0.61-0.53-1.1-1.18-1.48-1.94c-0.38-0.76-0.57-1.61-0.57-2.56c0-2.01,0.62-3.56,1.85-4.66c1.23-1.1,2.9-1.81,5-2.15   c1.4-0.21,2.49-0.4,3.27-0.55c0.78-0.15,1.35-0.3,1.71-0.43c0.37-0.14,0.59-0.3,0.66-0.48c0.07-0.18,0.11-0.41,0.11-0.68   c0-0.61-0.07-1.19-0.21-1.74c-0.14-0.55-0.36-1.03-0.68-1.46c-0.32-0.43-0.72-0.76-1.21-1.01c-0.49-0.24-1.08-0.36-1.78-0.36   c-1,0-1.95,0.25-2.83,0.75c-0.88,0.5-1.58,1.23-2.1,2.17h-1.87V27.04z M122.75,36.26c-0.24,0.06-0.49,0.12-0.73,0.16   c-0.24,0.05-0.47,0.1-0.69,0.16c-0.67,0.12-1.35,0.26-2.05,0.41c-0.7,0.15-1.33,0.37-1.89,0.66c-0.56,0.29-1.03,0.66-1.39,1.12   c-0.37,0.46-0.55,1.05-0.55,1.78c0,1.07,0.3,1.87,0.89,2.42c0.59,0.55,1.26,0.82,1.99,0.82c0.91,0,1.74-0.24,2.49-0.71   c0.74-0.47,1.33-1.04,1.76-1.71L122.75,36.26z"></path>
	<path class="st1" d="M132.11,35.71c0-2.01,0.34-3.75,1.02-5.23c0.68-1.48,1.57-2.69,2.67-3.63c1.1-0.94,2.37-1.64,3.8-2.1   c1.43-0.46,2.89-0.69,4.38-0.69c1.7,0,3.28,0.26,4.72,0.78c1.45,0.52,2.53,1.1,3.26,1.74c-0.49,1.03-0.91,2.36-1.28,3.97h-1.55   c-0.21-0.36-0.49-0.75-0.82-1.14c-0.33-0.4-0.72-0.76-1.14-1.1c-0.43-0.33-0.91-0.61-1.44-0.82c-0.53-0.21-1.09-0.32-1.67-0.32   c-1.16,0-2.14,0.21-2.94,0.64c-0.81,0.43-1.47,1.02-1.99,1.78c-0.52,0.76-0.9,1.66-1.14,2.69c-0.24,1.03-0.36,2.16-0.36,3.38   c0,2.68,0.57,4.7,1.71,6.07c1.14,1.37,2.76,2.05,4.86,2.05c1.06,0,2.19-0.33,3.38-1c1.19-0.67,2.21-1.49,3.06-2.47l1.23,1.14   c-0.21,1.13-0.35,2.05-0.41,2.79c-0.52,0.4-1.09,0.78-1.71,1.14c-0.63,0.37-1.29,0.69-1.99,0.98c-0.7,0.29-1.42,0.52-2.15,0.69   c-0.73,0.17-1.46,0.25-2.19,0.25c-1.37,0-2.73-0.21-4.08-0.64c-1.35-0.43-2.57-1.1-3.64-2.03c-1.07-0.93-1.94-2.13-2.6-3.61   C132.44,39.55,132.11,37.78,132.11,35.71"></path>
	<path class="st1" d="M154.2,35.71c0-2.01,0.34-3.75,1.02-5.23c0.68-1.48,1.57-2.69,2.67-3.63c1.1-0.94,2.37-1.64,3.8-2.1   c1.43-0.46,2.89-0.69,4.38-0.69c1.7,0,3.28,0.26,4.72,0.78c1.45,0.52,2.53,1.1,3.26,1.74c-0.49,1.03-0.91,2.36-1.28,3.97h-1.55   c-0.21-0.36-0.49-0.75-0.82-1.14c-0.34-0.4-0.72-0.76-1.14-1.1c-0.43-0.33-0.91-0.61-1.44-0.82c-0.53-0.21-1.09-0.32-1.67-0.32   c-1.16,0-2.14,0.21-2.95,0.64c-0.81,0.43-1.47,1.02-1.99,1.78c-0.52,0.76-0.9,1.66-1.14,2.69c-0.24,1.03-0.36,2.16-0.36,3.38   c0,2.68,0.57,4.7,1.71,6.07c1.14,1.37,2.76,2.05,4.86,2.05c1.06,0,2.19-0.33,3.38-1c1.19-0.67,2.21-1.49,3.06-2.47l1.23,1.14   c-0.21,1.13-0.35,2.05-0.41,2.79c-0.52,0.4-1.09,0.78-1.71,1.14c-0.62,0.37-1.29,0.69-1.99,0.98c-0.7,0.29-1.41,0.52-2.15,0.69   c-0.73,0.17-1.46,0.25-2.19,0.25c-1.37,0-2.73-0.21-4.09-0.64c-1.35-0.43-2.57-1.1-3.64-2.03c-1.07-0.93-1.94-2.13-2.6-3.61   C154.53,39.55,154.2,37.78,154.2,35.71"></path>
	<path class="st1" d="M176.16,36.3c0-1.89,0.23-3.58,0.71-5.09c0.47-1.51,1.16-2.79,2.08-3.86c0.91-1.06,2.03-1.88,3.36-2.44   c1.32-0.56,2.85-0.85,4.59-0.85c1.67,0,3.13,0.26,4.36,0.78c1.23,0.52,2.25,1.22,3.06,2.1c0.81,0.88,1.41,1.91,1.8,3.08   c0.4,1.17,0.59,2.41,0.59,3.72c0,0.27-0.02,0.7-0.04,1.28c-0.03,0.58-0.06,1-0.09,1.28h-0.89c-0.35,0-0.71-0.01-1.07-0.02   c-0.36-0.02-0.72-0.02-1.07-0.02h-0.94c-1-0.03-2.02-0.05-3.03-0.07c-1.02-0.01-2.03-0.02-3.04-0.02c-0.64,0-1.27,0.01-1.89,0.02   c-0.62,0.02-1.24,0.04-1.85,0.07c-0.34,0-0.53,0.01-0.57,0.02c-0.04,0.02-0.22,0.02-0.52,0.02v0.36c0,1.01,0.14,1.94,0.43,2.81   c0.29,0.87,0.71,1.62,1.28,2.26c0.56,0.64,1.26,1.14,2.08,1.51c0.82,0.37,1.77,0.55,2.83,0.55c1.03,0,2.15-0.33,3.36-1   c1.2-0.67,2.23-1.49,3.08-2.47l1.14,1.1l-0.32,2.83c-0.52,0.4-1.1,0.78-1.74,1.14c-0.64,0.37-1.31,0.69-2.01,0.98   c-0.7,0.29-1.41,0.52-2.15,0.69c-0.73,0.17-1.44,0.25-2.15,0.25c-1.7,0-3.25-0.28-4.63-0.85c-1.38-0.56-2.58-1.34-3.58-2.33   c-1-0.99-1.78-2.15-2.33-3.49C176.43,39.3,176.16,37.85,176.16,36.3 M186.98,27.17c-0.82,0-1.54,0.17-2.15,0.52   c-0.61,0.35-1.12,0.8-1.53,1.36c-0.41,0.56-0.72,1.18-0.94,1.86c-0.21,0.68-0.36,1.35-0.46,2.02h0.73   c0.64,0.03,1.29,0.05,1.96,0.07c0.67,0.01,1.32,0.02,1.96,0.02c0.64,0,1.29-0.01,1.96-0.02c0.67-0.02,1.34-0.04,2.01-0.07h0.91   c-0.03-0.63-0.12-1.29-0.28-1.97c-0.15-0.68-0.4-1.3-0.75-1.85c-0.35-0.56-0.8-1.02-1.35-1.38   C188.53,27.35,187.83,27.17,186.98,27.17z"></path>
	<path class="st1" d="M212.22,29.52c-0.7-0.99-1.63-1.48-2.78-1.48c-1.74,0-3,0.54-3.79,1.62c-0.79,1.08-1.19,2.63-1.19,4.63v3.65   c0,1.28,0.04,2.69,0.11,4.25c0.08,1.55,0.21,3.18,0.39,4.88c-0.67-0.12-1.26-0.22-1.76-0.3c-0.5-0.07-0.91-0.11-1.21-0.11   c-0.3,0-0.71,0.04-1.21,0.11c-0.5,0.08-1.07,0.18-1.71,0.3c0.18-1.67,0.3-3.29,0.37-4.86c0.06-1.57,0.09-2.99,0.09-4.27v-4.47   c0-1.28-0.03-2.69-0.09-4.24c-0.06-1.55-0.18-3.2-0.37-4.93c1.28,0.27,2.25,0.41,2.92,0.41c0.21,0,0.56-0.03,1.05-0.09   c0.49-0.06,1.05-0.17,1.69-0.32c-0.06,0.43-0.11,0.83-0.16,1.21c-0.05,0.38-0.07,0.68-0.07,0.89c0.79-0.85,1.67-1.45,2.62-1.8   c0.96-0.35,2.12-0.53,3.49-0.53c0.88,0,1.79,0.12,2.72,0.37c0.93,0.24,1.77,0.68,2.51,1.32c0.74,0.64,1.35,1.5,1.82,2.58   c0.47,1.08,0.71,2.46,0.71,4.13c0,0.58-0.01,1.18-0.02,1.8c-0.02,0.62-0.04,1.24-0.07,1.85c-0.03,0.64-0.05,1.35-0.07,2.12   c-0.02,0.78-0.02,1.51-0.02,2.21v1.55c0,0.58,0.01,1.16,0.02,1.76c0.02,0.59,0.03,1.18,0.05,1.76c0.01,0.58,0.04,1.1,0.07,1.55   c-0.64-0.12-1.2-0.22-1.67-0.3c-0.47-0.07-0.83-0.11-1.07-0.11c-0.24,0-0.59,0.04-1.05,0.11c-0.45,0.08-0.99,0.18-1.6,0.3   l0.14-4.61c0.06-1.01,0.11-2,0.14-2.99c0.03-0.99,0.04-2.02,0.04-3.08v-2.65C213.27,31.92,212.92,30.51,212.22,29.52"></path>
	<path class="st1" d="M226.74,18.73h1.46c-0.09,1.07-0.17,2.13-0.25,3.2c-0.08,1.07-0.14,2.13-0.21,3.2   c0.61-0.03,1.35-0.05,2.24-0.07c0.88-0.01,1.7-0.05,2.46-0.11c-0.06,0.61-0.1,1.03-0.11,1.25c-0.02,0.23-0.02,0.42-0.02,0.57   c0,0.09,0.01,0.23,0.02,0.41c0.02,0.18,0.07,0.67,0.16,1.46c-0.36-0.03-0.78-0.05-1.23-0.07c-0.46-0.01-0.91-0.03-1.35-0.04   c-0.44-0.02-0.85-0.03-1.23-0.05c-0.38-0.01-0.71-0.02-0.98-0.02c-0.03,0.43-0.06,1.04-0.09,1.85c-0.03,0.81-0.05,1.69-0.07,2.65   c-0.02,0.96-0.03,1.93-0.05,2.92c-0.02,0.99-0.02,1.88-0.02,2.67c0,0.7,0.01,1.39,0.05,2.08c0.03,0.68,0.13,1.29,0.29,1.83   c0.17,0.53,0.43,0.96,0.78,1.28c0.35,0.32,0.84,0.48,1.48,0.48c0.21,0,0.59-0.06,1.14-0.18c0.55-0.12,1.11-0.26,1.69-0.41v2.79   c-0.7,0.24-1.42,0.45-2.17,0.64c-0.75,0.18-1.42,0.27-2.03,0.27c-2.1,0-3.65-0.55-4.66-1.67c-1-1.11-1.51-2.64-1.51-4.59   c0-0.7,0.01-1.44,0.04-2.22c0.03-0.77,0.06-1.62,0.09-2.53c0-0.58,0.01-1.15,0.02-1.71c0.01-0.56,0.03-1.15,0.04-1.76   c0.02-0.61,0.03-1.27,0.05-1.99c0.01-0.72,0.02-1.51,0.02-2.4h-3.06c0.06-0.37,0.11-0.72,0.16-1.05c0.05-0.33,0.07-0.58,0.07-0.73   c0-0.03-0.02-0.23-0.07-0.6c-0.05-0.37-0.1-0.76-0.16-1.19c0.67,0.06,1.25,0.11,1.73,0.14c0.49,0.03,0.9,0.05,1.23,0.05v-0.5   c-0.03-0.52-0.05-1.18-0.07-1.99c-0.02-0.81-0.04-1.48-0.07-2.03L226.74,18.73z"></path>
	<path class="st0" d="M130.77,59.33v-7.46c0.12,0.04,0.26,0.06,0.43,0.06c0.17,0,0.31-0.02,0.43-0.06v3.61   c0.11-0.16,0.25-0.32,0.44-0.46c0.18-0.15,0.39-0.26,0.62-0.35c0.23-0.09,0.45-0.13,0.67-0.13c0.43,0,0.81,0.11,1.12,0.33   c0.31,0.22,0.55,0.51,0.71,0.88c0.16,0.36,0.24,0.75,0.24,1.15c0,0.31-0.05,0.62-0.14,0.91c-0.09,0.29-0.23,0.56-0.42,0.8   c-0.19,0.24-0.42,0.44-0.71,0.6c-0.29,0.16-0.61,0.25-0.97,0.27c-0.28,0-0.55-0.06-0.82-0.18c-0.27-0.12-0.52-0.3-0.75-0.53   l-0.63,0.55H130.77z M131.64,57.06c-0.01,0.11-0.01,0.18-0.01,0.24c0,0.31,0.05,0.6,0.15,0.88c0.1,0.28,0.25,0.5,0.45,0.67   c0.2,0.17,0.45,0.26,0.75,0.26c0.27,0,0.51-0.08,0.74-0.24c0.23-0.16,0.41-0.4,0.55-0.72c0.13-0.32,0.2-0.7,0.2-1.15   c0-0.35-0.04-0.67-0.13-0.97c-0.09-0.3-0.23-0.54-0.43-0.72c-0.2-0.18-0.44-0.27-0.74-0.27c-0.04,0-0.08,0-0.11,0   c-0.19,0-0.38,0.05-0.55,0.16c-0.17,0.11-0.32,0.26-0.45,0.45c-0.13,0.19-0.23,0.41-0.3,0.66   C131.67,56.53,131.64,56.78,131.64,57.06z"></path>
	<path class="st0" d="M136.45,57.13c0-0.52,0.11-0.98,0.32-1.38c0.21-0.4,0.52-0.72,0.91-0.95c0.4-0.23,0.85-0.34,1.36-0.34   c0.6,0,1.07,0.15,1.42,0.46c0.35,0.31,0.6,0.65,0.73,1.04c0.14,0.39,0.2,0.72,0.2,1.01c0,0.27-0.05,0.55-0.14,0.82   c-0.09,0.28-0.24,0.54-0.43,0.79c-0.2,0.25-0.46,0.45-0.78,0.6c-0.32,0.15-0.69,0.23-1.1,0.23c-0.02,0-0.04,0-0.06,0   c-0.02,0-0.05,0-0.08,0c-0.48,0-0.9-0.1-1.26-0.3c-0.36-0.2-0.63-0.47-0.82-0.82C136.55,57.95,136.45,57.56,136.45,57.13    M137.4,57.21c0,0.38,0.1,0.78,0.32,1.2c0.21,0.42,0.6,0.65,1.18,0.68c0.44,0,0.81-0.18,1.09-0.54c0.28-0.37,0.44-0.89,0.48-1.58   c0-0.42-0.05-0.78-0.16-1.11c-0.11-0.32-0.27-0.57-0.5-0.75c-0.22-0.18-0.5-0.26-0.83-0.26c-0.48,0-0.87,0.22-1.15,0.65   c-0.29,0.43-0.43,0.93-0.43,1.5C137.39,57.05,137.39,57.12,137.4,57.21z"></path>
	<path class="st0" d="M143.08,59.33v-4.87c0.12,0.04,0.26,0.06,0.43,0.06c0.17,0,0.31-0.02,0.43-0.06v0.86   c0.11-0.15,0.2-0.26,0.26-0.34c0.07-0.08,0.16-0.17,0.29-0.26c0.13-0.1,0.28-0.18,0.46-0.24c0.18-0.06,0.39-0.1,0.63-0.1   c0.28,0,0.54,0.07,0.78,0.21c0.24,0.14,0.43,0.36,0.58,0.67c0.15,0.31,0.22,0.7,0.22,1.16v2.91c-0.12-0.04-0.24-0.06-0.37-0.06   c-0.13,0-0.3,0.02-0.49,0.06v-2.91c0-0.45-0.11-0.81-0.33-1.05c-0.22-0.25-0.48-0.37-0.79-0.37c-0.21,0-0.41,0.06-0.6,0.18   c-0.19,0.12-0.34,0.3-0.46,0.54c-0.12,0.24-0.17,0.53-0.17,0.86v2.75c-0.16-0.04-0.3-0.06-0.43-0.06S143.24,59.29,143.08,59.33"></path>
	<path class="st0" d="M148.68,57.21c0-0.43,0.05-0.82,0.14-1.16c0.1-0.34,0.24-0.63,0.43-0.87c0.19-0.24,0.42-0.42,0.69-0.54   c0.27-0.12,0.58-0.18,0.94-0.18c0.22,0,0.45,0.04,0.69,0.13c0.24,0.09,0.43,0.2,0.58,0.34c0.15,0.14,0.22,0.27,0.22,0.39V51.8   c0.16,0.04,0.3,0.06,0.43,0.06c0.13,0,0.27-0.02,0.43-0.06v7.54c-0.12-0.04-0.25-0.06-0.4-0.06c-0.15,0-0.31,0.02-0.46,0.06v-0.86   c-0.24,0.33-0.49,0.57-0.78,0.72c-0.28,0.15-0.57,0.23-0.87,0.23c-0.34,0-0.68-0.1-1-0.29c-0.32-0.19-0.57-0.46-0.76-0.8   C148.78,57.99,148.68,57.62,148.68,57.21 M149.63,57.06c0,0.69,0.14,1.17,0.41,1.46c0.27,0.28,0.56,0.43,0.85,0.43   c0.03,0,0.07,0.01,0.12,0.01c0.24,0,0.47-0.08,0.68-0.23c0.21-0.16,0.38-0.38,0.5-0.67c0.13-0.3,0.19-0.65,0.19-1.06   c0-0.52-0.09-0.99-0.27-1.41c-0.18-0.42-0.53-0.64-1.04-0.64c-0.02,0-0.04,0-0.05,0c-0.01,0-0.03,0-0.05,0   c-0.55,0.03-0.91,0.26-1.08,0.68C149.71,56.03,149.63,56.51,149.63,57.06z"></path>
	<path class="st0" d="M155.23,52.74c0-0.18,0.05-0.32,0.16-0.42c0.11-0.09,0.23-0.14,0.37-0.14c0.15,0,0.29,0.05,0.4,0.15   c0.11,0.1,0.17,0.24,0.17,0.41c-0.02,0.18-0.08,0.32-0.19,0.42c-0.11,0.1-0.23,0.14-0.37,0.14c-0.14,0-0.27-0.05-0.38-0.16   C155.28,53.04,155.23,52.91,155.23,52.74 M155.31,59.33v-4.87c0.16,0.04,0.31,0.06,0.46,0.06c0.15,0,0.28-0.02,0.4-0.06v4.87   c-0.12-0.04-0.25-0.06-0.4-0.06C155.62,59.27,155.47,59.29,155.31,59.33z"></path>
	<path class="st0" d="M158.48,59.33v-4.87c0.12,0.04,0.26,0.06,0.43,0.06c0.17,0,0.31-0.02,0.43-0.06v0.86   c0.11-0.15,0.2-0.26,0.26-0.34c0.07-0.08,0.16-0.17,0.29-0.26c0.13-0.1,0.28-0.18,0.46-0.24c0.18-0.06,0.4-0.1,0.63-0.1   c0.28,0,0.54,0.07,0.78,0.21c0.24,0.14,0.43,0.36,0.58,0.67c0.15,0.31,0.22,0.7,0.22,1.16v2.91c-0.12-0.04-0.24-0.06-0.37-0.06   s-0.29,0.02-0.49,0.06v-2.91c0-0.45-0.11-0.81-0.33-1.05c-0.22-0.25-0.49-0.37-0.79-0.37c-0.21,0-0.41,0.06-0.6,0.18   c-0.19,0.12-0.34,0.3-0.46,0.54c-0.12,0.24-0.17,0.53-0.17,0.86v2.75c-0.16-0.04-0.3-0.06-0.43-0.06   C158.78,59.27,158.64,59.29,158.48,59.33"></path>
	<path class="st0" d="M164.24,55.88c0.05-0.32,0.17-0.59,0.35-0.79c0.18-0.2,0.4-0.34,0.65-0.42c0.25-0.08,0.52-0.12,0.8-0.12   c0.28,0,0.49,0,0.61,0.01c0.13,0.01,0.22,0.02,0.27,0.03c0.05,0.01,0.12,0.02,0.21,0.03c0.09,0.01,0.23,0.02,0.42,0.02   c0.24,0,0.55-0.01,0.92-0.02v0.39l-1.18-0.08c0.12,0.08,0.24,0.19,0.35,0.33c0.11,0.15,0.2,0.31,0.26,0.48   c0.06,0.18,0.09,0.35,0.09,0.53c-0.05,0.48-0.21,0.83-0.46,1.05c-0.26,0.21-0.58,0.34-0.99,0.38c-0.4,0.04-0.72,0.06-0.96,0.07   c-0.24,0.01-0.38,0.06-0.42,0.16c-0.05,0.11-0.07,0.2-0.07,0.26c0,0.14,0.07,0.25,0.2,0.32c0.14,0.07,0.31,0.12,0.51,0.15   c0.2,0.02,0.44,0.04,0.7,0.04c0.09,0,0.17,0,0.24,0c0.07,0,0.15,0,0.25,0c0.12,0,0.21,0,0.28,0.01c0.41,0.08,0.71,0.22,0.9,0.42   c0.19,0.19,0.31,0.5,0.35,0.92c0,0.02,0.01,0.06,0.01,0.1c0,0.21-0.06,0.43-0.17,0.65c-0.11,0.22-0.28,0.42-0.51,0.61   c-0.22,0.18-0.49,0.33-0.8,0.44c-0.31,0.11-0.65,0.16-1.04,0.16c-0.39,0-0.73-0.06-1.03-0.19c-0.3-0.13-0.53-0.3-0.69-0.51   c-0.16-0.21-0.24-0.45-0.24-0.71c0-0.39,0.08-0.69,0.24-0.9c0.16-0.21,0.42-0.36,0.78-0.44c-0.42-0.17-0.63-0.43-0.63-0.79   c0-0.15,0.02-0.28,0.07-0.38c0.05-0.1,0.13-0.19,0.23-0.27c0.1-0.08,0.24-0.18,0.41-0.29c-0.4-0.13-0.66-0.3-0.77-0.53   c-0.11-0.23-0.17-0.51-0.17-0.87V55.88z M164.71,60.43c0,0.29,0.13,0.56,0.37,0.8c0.25,0.25,0.62,0.37,1.12,0.37   c0.23,0,0.47-0.04,0.71-0.12c0.24-0.08,0.45-0.2,0.61-0.37c0.16-0.17,0.25-0.37,0.25-0.61c0-0.23-0.03-0.43-0.09-0.6   c-0.06-0.16-0.19-0.3-0.4-0.42c-0.21-0.11-0.52-0.17-0.93-0.17c-0.31,0-0.59,0.03-0.82,0.08c-0.23,0.06-0.42,0.16-0.57,0.33   C164.82,59.91,164.73,60.14,164.71,60.43z M165.03,56.27c0,0.34,0.1,0.63,0.3,0.85c0.2,0.22,0.44,0.33,0.72,0.33   c0.05,0.01,0.09,0.01,0.12,0.01c0.18,0,0.35-0.05,0.51-0.15c0.16-0.1,0.29-0.25,0.39-0.44c0.1-0.19,0.15-0.41,0.15-0.67   c0-0.42-0.1-0.75-0.31-0.98c-0.21-0.23-0.47-0.35-0.79-0.35c-0.42,0.04-0.7,0.2-0.86,0.48C165.11,55.63,165.03,55.94,165.03,56.27z   "></path>
	<path class="st0" d="M176.41,54.55c0.12,0.04,0.25,0.06,0.39,0.06c0.15,0,0.28-0.02,0.39-0.06v1.02c0.14-0.4,0.37-0.68,0.66-0.85   c0.3-0.17,0.63-0.25,0.99-0.25c0.4,0,0.76,0.09,1.07,0.26c0.31,0.17,0.55,0.44,0.72,0.82c0.17,0.37,0.26,0.85,0.26,1.44   c0,0.32-0.04,0.62-0.13,0.91c-0.09,0.29-0.22,0.55-0.39,0.78c-0.17,0.23-0.39,0.42-0.65,0.55c-0.26,0.13-0.56,0.2-0.9,0.2   c-0.02,0-0.04,0-0.06,0c-0.02,0-0.04,0-0.07,0c-0.39,0-0.7-0.09-0.94-0.26c-0.23-0.17-0.42-0.4-0.56-0.68v3.45   c-0.12-0.04-0.25-0.06-0.39-0.06c-0.14,0-0.27,0.02-0.39,0.06V54.55z M177.2,56.82v0.17c0,0.28,0.03,0.55,0.08,0.8   c0.05,0.25,0.18,0.49,0.38,0.72c0.2,0.22,0.49,0.37,0.87,0.43c0.03,0,0.07,0.01,0.13,0.01c0.2,0,0.38-0.04,0.54-0.13   c0.16-0.09,0.3-0.22,0.4-0.38c0.11-0.17,0.2-0.37,0.26-0.61c0.06-0.24,0.09-0.52,0.09-0.84c0-0.37-0.03-0.72-0.1-1.03   c-0.07-0.32-0.2-0.58-0.38-0.78c-0.18-0.21-0.43-0.31-0.74-0.31c-0.05,0-0.08,0-0.1,0.01c-0.36,0-0.66,0.15-0.89,0.46   C177.49,55.63,177.32,56.13,177.2,56.82z"></path>
	<path class="st0" d="M182.65,59.33v-4.79c0.12,0.04,0.25,0.06,0.39,0.06c0.15,0,0.28-0.02,0.39-0.06v0.94   c0.1-0.2,0.22-0.37,0.36-0.53c0.14-0.15,0.3-0.28,0.48-0.36c0.18-0.09,0.37-0.13,0.58-0.13c0.03,0,0.08,0,0.15,0.01l-0.08,0.94   c-0.2-0.1-0.38-0.16-0.55-0.16c-0.2,0-0.37,0.07-0.52,0.2c-0.14,0.13-0.25,0.3-0.32,0.5c-0.07,0.2-0.11,0.38-0.11,0.56v2.83   c-0.12-0.04-0.25-0.06-0.39-0.06C182.89,59.27,182.76,59.29,182.65,59.33"></path>
	<path class="st0" d="M185.97,57.13c0-0.55,0.1-1.03,0.3-1.42c0.2-0.39,0.47-0.69,0.82-0.88c0.34-0.2,0.73-0.29,1.16-0.29   c0.5,0,0.9,0.11,1.21,0.34c0.31,0.23,0.53,0.5,0.67,0.82c0.13,0.32,0.2,0.63,0.2,0.94c0,0.14-0.01,0.25-0.04,0.33h-3.37   c0,0.42,0.05,0.77,0.16,1.05c0.11,0.29,0.29,0.51,0.55,0.67c0.26,0.16,0.6,0.24,1.02,0.24c0.28,0,0.54-0.06,0.8-0.17   c0.25-0.11,0.46-0.26,0.62-0.46l0.08,0.55c-0.26,0.17-0.44,0.28-0.56,0.35c-0.12,0.07-0.28,0.13-0.49,0.19   c-0.21,0.06-0.46,0.09-0.75,0.09c-0.52-0.02-0.95-0.14-1.3-0.37c-0.35-0.22-0.6-0.5-0.77-0.85C186.1,57.93,186,57.55,185.97,57.13    M189.51,56.59c0-0.47-0.09-0.86-0.28-1.18c-0.19-0.31-0.51-0.47-0.98-0.47c-0.27,0-0.51,0.08-0.71,0.25   c-0.2,0.17-0.35,0.38-0.46,0.64c-0.11,0.26-0.16,0.51-0.16,0.75H189.51z"></path>
	<path class="st0" d="M191.58,57.06c0-0.51,0.1-0.95,0.29-1.32c0.2-0.37,0.5-0.67,0.9-0.88c0.4-0.21,0.89-0.31,1.48-0.31   c0.32,0,0.58,0.03,0.77,0.09c0.19,0.06,0.43,0.16,0.72,0.3l-0.16,0.71h-0.16c-0.16-0.24-0.34-0.42-0.56-0.54   c-0.21-0.11-0.47-0.17-0.78-0.17c-0.33,0-0.61,0.1-0.85,0.29c-0.24,0.19-0.42,0.45-0.54,0.76c-0.12,0.31-0.18,0.64-0.18,0.99   c0,0.36,0.07,0.69,0.19,1c0.13,0.31,0.32,0.56,0.58,0.75c0.26,0.19,0.58,0.29,0.95,0.29c0.3,0,0.56-0.05,0.77-0.15   c0.22-0.1,0.43-0.26,0.64-0.47l0.08,0.08l-0.08,0.47c-0.21,0.17-0.45,0.29-0.73,0.38c-0.28,0.09-0.56,0.13-0.85,0.13   c-0.42,0-0.83-0.09-1.21-0.27c-0.39-0.18-0.7-0.45-0.93-0.81C191.7,58,191.58,57.57,191.58,57.06"></path>
	<path class="st0" d="M197.5,52.74c0-0.18,0.05-0.32,0.16-0.42c0.1-0.09,0.23-0.14,0.37-0.14c0.15,0,0.29,0.05,0.4,0.15   c0.11,0.1,0.17,0.24,0.17,0.41c-0.02,0.18-0.08,0.32-0.19,0.42c-0.11,0.1-0.23,0.14-0.37,0.14c-0.14,0-0.27-0.05-0.38-0.16   C197.55,53.04,197.5,52.91,197.5,52.74 M197.58,59.33v-4.87c0.16,0.04,0.31,0.06,0.46,0.06c0.15,0,0.29-0.02,0.4-0.06v4.87   c-0.12-0.04-0.25-0.06-0.4-0.06C197.89,59.27,197.73,59.29,197.58,59.33z"></path>
	<path class="st0" d="M200.43,55.96c0-0.5,0.17-0.88,0.5-1.14c0.33-0.26,0.74-0.39,1.21-0.39c0.4,0,0.78,0.09,1.12,0.27l-0.24,0.78   h-0.16c-0.04-0.14-0.11-0.26-0.2-0.36c-0.09-0.1-0.2-0.17-0.32-0.22c-0.12-0.05-0.25-0.07-0.38-0.07c-0.2,0-0.38,0.06-0.54,0.17   c-0.16,0.11-0.26,0.27-0.29,0.48c-0.01,0.08-0.02,0.13-0.02,0.17c0,0.2,0.07,0.35,0.21,0.47c0.14,0.12,0.32,0.22,0.56,0.3   c0.23,0.08,0.45,0.16,0.67,0.23c0.34,0.13,0.59,0.3,0.76,0.51c0.17,0.21,0.25,0.44,0.25,0.7c0,0.25-0.08,0.5-0.24,0.74   c-0.16,0.24-0.38,0.44-0.66,0.58c-0.28,0.15-0.58,0.22-0.9,0.22c-0.68,0-1.15-0.13-1.41-0.39l0.23-0.71h0.16   c0.28,0.48,0.63,0.73,1.05,0.73c0.18,0,0.34-0.04,0.49-0.13c0.15-0.09,0.27-0.2,0.36-0.34c0.09-0.14,0.14-0.28,0.14-0.42   c-0.02-0.18-0.08-0.33-0.16-0.44c-0.09-0.11-0.2-0.2-0.35-0.26c-0.14-0.06-0.32-0.12-0.53-0.18c-0.21-0.06-0.36-0.1-0.46-0.14   c-0.26-0.09-0.47-0.22-0.63-0.41C200.51,56.54,200.43,56.28,200.43,55.96"></path>
	<path class="st0" d="M205.1,52.74c0-0.18,0.05-0.32,0.16-0.42c0.11-0.09,0.23-0.14,0.37-0.14c0.15,0,0.29,0.05,0.4,0.15   c0.11,0.1,0.17,0.24,0.17,0.41c-0.02,0.18-0.08,0.32-0.19,0.42c-0.11,0.1-0.23,0.14-0.37,0.14c-0.14,0-0.27-0.05-0.38-0.16   C205.15,53.04,205.1,52.91,205.1,52.74 M205.17,59.33v-4.87c0.16,0.04,0.31,0.06,0.46,0.06c0.15,0,0.28-0.02,0.4-0.06v4.87   c-0.12-0.04-0.25-0.06-0.4-0.06C205.49,59.27,205.33,59.29,205.17,59.33z"></path>
	<path class="st0" d="M207.8,57.13c0-0.52,0.11-0.98,0.32-1.38c0.21-0.4,0.52-0.72,0.91-0.95c0.4-0.23,0.85-0.34,1.36-0.34   c0.6,0,1.07,0.15,1.42,0.46c0.35,0.31,0.6,0.65,0.73,1.04c0.13,0.39,0.2,0.72,0.2,1.01c0,0.27-0.05,0.55-0.14,0.82   c-0.09,0.28-0.24,0.54-0.43,0.79c-0.2,0.25-0.46,0.45-0.78,0.6c-0.32,0.15-0.69,0.23-1.1,0.23c-0.02,0-0.04,0-0.06,0   c-0.02,0-0.05,0-0.08,0c-0.48,0-0.9-0.1-1.26-0.3c-0.36-0.2-0.63-0.47-0.82-0.82C207.89,57.95,207.8,57.56,207.8,57.13    M208.74,57.21c0,0.38,0.11,0.78,0.32,1.2c0.21,0.42,0.6,0.65,1.17,0.68c0.44,0,0.81-0.18,1.09-0.54c0.28-0.37,0.44-0.89,0.48-1.58   c0-0.42-0.06-0.78-0.16-1.11c-0.11-0.32-0.27-0.57-0.5-0.75c-0.22-0.18-0.5-0.26-0.83-0.26c-0.48,0-0.87,0.22-1.15,0.65   c-0.28,0.43-0.43,0.93-0.43,1.5C208.73,57.05,208.73,57.12,208.74,57.21z"></path>
	<path class="st0" d="M214.42,59.33v-4.87c0.12,0.04,0.26,0.06,0.43,0.06c0.17,0,0.31-0.02,0.43-0.06v0.86   c0.11-0.15,0.2-0.26,0.26-0.34c0.07-0.08,0.16-0.17,0.29-0.26c0.13-0.1,0.28-0.18,0.46-0.24c0.18-0.06,0.4-0.1,0.63-0.1   c0.28,0,0.54,0.07,0.77,0.21c0.24,0.14,0.43,0.36,0.58,0.67c0.15,0.31,0.22,0.7,0.22,1.16v2.91c-0.12-0.04-0.24-0.06-0.37-0.06   c-0.13,0-0.29,0.02-0.49,0.06v-2.91c0-0.45-0.11-0.81-0.33-1.05c-0.22-0.25-0.48-0.37-0.79-0.37c-0.21,0-0.41,0.06-0.6,0.18   c-0.19,0.12-0.34,0.3-0.46,0.54c-0.12,0.24-0.17,0.53-0.17,0.86v2.75c-0.16-0.04-0.3-0.06-0.43-0.06   C214.72,59.27,214.58,59.29,214.42,59.33"></path>
</g>
</svg>
